<svg xmlns="http://www.w3.org/2000/svg" viewBox="0 0 800 600">
  <rect width="800" height="600" rx="36" fill="#dff6ff"/>
  <rect x="40" y="70" width="720" height="470" rx="28" fill="#fff8df" stroke="#8fd3ff" stroke-width="8"/>
  <circle cx="260" cy="240" r="74" fill="#ffd89e"/>
  <circle cx="520" cy="240" r="74" fill="#ffd89e"/>
  <rect x="214" y="310" width="92" height="120" rx="30" fill="#71c8ff"/>
  <rect x="474" y="310" width="92" height="120" rx="30" fill="#8be28f"/>
  <rect x="345" y="210" width="110" height="170" rx="32" fill="#ffb0c7"/>
  <circle cx="400" cy="170" r="66" fill="#ffd89e"/>
  <path d="M136 450h520" stroke="#8b6a4d" stroke-width="12" stroke-linecap="round"/>
  <circle cx="230" cy="225" r="10" fill="#2c3e50"/>
  <circle cx="290" cy="225" r="10" fill="#2c3e50"/>
  <path d="M230 270q30 24 60 0" fill="none" stroke="#2c3e50" stroke-width="8" stroke-linecap="round"/>
  <circle cx="490" cy="225" r="10" fill="#2c3e50"/>
  <circle cx="550" cy="225" r="10" fill="#2c3e50"/>
  <path d="M490 270q30 24 60 0" fill="none" stroke="#2c3e50" stroke-width="8" stroke-linecap="round"/>
  <circle cx="375" cy="160" r="10" fill="#2c3e50"/>
  <circle cx="425" cy="160" r="10" fill="#2c3e50"/>
  <path d="M373 205q27 20 54 0" fill="none" stroke="#2c3e50" stroke-width="8" stroke-linecap="round"/>
  <text x="400" y="100" text-anchor="middle" font-size="44" font-family="Arial, sans-serif" font-weight="700" fill="#2c76c9">Đi nhẹ • Nói khẽ • Giữ trật tự</text>
  <text x="400" y="515" text-anchor="middle" font-size="36" font-family="Arial, sans-serif" font-weight="700" fill="#399c58">✅ Bé ngoan tham quan</text>
</svg>
