<svg xmlns="http://www.w3.org/2000/svg" width="900" height="620" viewBox="0 0 900 620" role="img" aria-label="Nghe theo cô hướng dẫn và làm theo biển báo">
  <defs>
    <linearGradient id="bg" x1="0" y1="0" x2="1" y2="1">
      <stop offset="0%" stop-color="#e8f1ff"/>
      <stop offset="100%" stop-color="#fff0d8"/>
    </linearGradient>
    <filter id="shadow" x="-20%" y="-20%" width="140%" height="140%">
      <feDropShadow dx="0" dy="12" stdDeviation="12" flood-color="#7aa7c7" flood-opacity="0.20"/>
    </filter>
  </defs>
  <rect width="900" height="620" rx="42" fill="url(#bg)"/>
  <circle cx="115" cy="105" r="42" fill="#fff8a6" opacity="0.95"/>
  <circle cx="780" cy="118" r="30" fill="#ffffff" opacity="0.95"/>
  <circle cx="820" cy="90" r="18" fill="#ffffff" opacity="0.9"/>
  <circle cx="742" cy="84" r="16" fill="#ffffff" opacity="0.9"/>
  <rect x="65" y="68" width="770" height="484" rx="34" fill="#ffffff" filter="url(#shadow)"/>
  <rect x="92" y="96" width="716" height="160" rx="28" fill="#fffdf2"/>
  <text x="450" y="165" text-anchor="middle" font-size="48" font-family="Arial, sans-serif" font-weight="700" fill="#29506a">Nghe cô và biển báo</text>
  <text x="450" y="225" text-anchor="middle" font-size="34" font-family="Arial, sans-serif" fill="#5f7f96">Nghe theo cô hướng dẫn và làm theo biển báo</text>
  <circle cx="250" cy="385" r="96" fill="#e9f8ff"/>
  <circle cx="450" cy="385" r="96" fill="#fff1d8"/>
  <circle cx="650" cy="385" r="96" fill="#eefbe3"/>
  <text x="250" y="417" text-anchor="middle" font-size="94">👩‍🏫</text>
  <text x="450" y="417" text-anchor="middle" font-size="94">🪧</text>
  <text x="650" y="417" text-anchor="middle" font-size="94">💡</text>
  <rect x="160" y="486" width="580" height="42" rx="21" fill="#dff3ff"/>
  <text x="450" y="515" text-anchor="middle" font-size="26" font-family="Arial, sans-serif" font-weight="700" fill="#416a86">Bé lớp 2 học bằng hình ảnh thật dễ nhớ 🎉</text>
</svg>